<svg width="17" height="18" viewBox="0 0 17 18" fill="none" xmlns="http://www.w3.org/2000/svg">
<path d="M11.7785 5.11567C11.7785 3.17281 10.2 1.59424 8.25712 1.59424C6.31426 1.59424 4.85712 3.17281 4.85712 5.11567C4.85712 6.32995 8.25712 11.0657 8.25712 11.0657C8.25712 11.0657 11.7785 6.45138 11.7785 5.11567Z" fill="#91D7E3"/>
<path d="M8.25714 12.2801L7.89286 11.7944C7.28571 10.9444 4.25 6.69442 4.25 5.35871C4.25 3.17299 6.07143 1.35156 8.25714 1.35156C10.4429 1.35156 12.2643 3.17299 12.2643 5.35871C12.2643 6.81585 9.22857 10.9444 8.5 11.7944L8.25714 12.2801ZM8.25714 2.20156C6.55714 2.20156 5.1 3.53728 5.1 5.35871C5.1 6.08728 6.8 8.75871 8.25714 10.7016C9.71429 8.75871 11.4143 6.08728 11.4143 5.35871C11.4143 3.53728 9.95714 2.20156 8.25714 2.20156Z" fill="#7DC4E4"/>
<path d="M15.4214 14.1013H1.7C0.97143 14.1013 0.242859 13.4942 0.242859 12.6442C0.242859 11.7942 0.850002 11.187 1.7 11.187H4.00714C4.25 11.187 4.49286 11.4299 4.49286 11.6727C4.49286 11.9156 4.37143 12.1584 4.12857 12.1584H1.7C1.45714 12.1584 1.21429 12.4013 1.21429 12.6442C1.21429 12.887 1.45714 13.1299 1.7 13.1299H15.3C15.5429 13.1299 15.7857 13.3727 15.7857 13.6156C15.7857 13.8584 15.6643 14.1013 15.4214 14.1013Z" fill="#7DC4E4"/>
<path d="M15.4214 16.0442H3.76429C3.52144 16.0442 3.27858 15.8013 3.27858 15.5585C3.27858 15.3156 3.52144 15.0727 3.76429 15.0727H15.3C15.5429 15.0727 15.7857 14.8299 15.7857 14.587C15.7857 14.3442 15.5429 14.1013 15.3 14.1013H1.70001C1.45715 14.1013 1.21429 13.8585 1.21429 13.6156C1.21429 13.3727 1.45715 13.1299 1.70001 13.1299H15.3C16.0286 13.1299 16.7572 13.737 16.7572 14.587C16.7572 15.437 16.15 16.0442 15.4214 16.0442Z" fill="#7DC4E4"/>
<path d="M6.92145 4.87297C6.92143 5.04839 6.95596 5.2221 7.02308 5.38417C7.0902 5.54625 7.18858 5.69351 7.31262 5.81756C7.43665 5.94161 7.58391 6.04001 7.74597 6.10715C7.90804 6.17428 8.08174 6.20884 8.25716 6.20884C8.43258 6.20884 8.60629 6.17428 8.76835 6.10715C8.93042 6.04001 9.07767 5.94161 9.20171 5.81756C9.32574 5.69351 9.42413 5.54625 9.49124 5.38417C9.55836 5.2221 9.5929 5.04839 9.59288 4.87297C9.5929 4.69755 9.55836 4.52384 9.49124 4.36177C9.42413 4.1997 9.32574 4.05243 9.20171 3.92838C9.07767 3.80434 8.93042 3.70593 8.76835 3.6388C8.60629 3.57166 8.43258 3.53711 8.25716 3.53711C8.08174 3.53711 7.90804 3.57166 7.74597 3.6388C7.58391 3.70593 7.43665 3.80434 7.31262 3.92838C7.18858 4.05243 7.0902 4.1997 7.02308 4.36177C6.95596 4.52384 6.92143 4.69755 6.92145 4.87297Z" fill="#24273A"/>
<path d="M8.25713 6.57285C7.2857 6.57285 6.55713 5.84428 6.55713 4.87285C6.55713 3.90142 7.2857 3.17285 8.25713 3.17285C9.22856 3.17285 9.95713 3.90142 9.95713 4.87285C9.95713 5.84428 9.22856 6.57285 8.25713 6.57285ZM8.25713 4.02285C7.77141 4.02285 7.40713 4.38714 7.40713 4.87285C7.40713 5.35857 7.77141 5.72285 8.25713 5.72285C8.74284 5.72285 9.10713 5.35857 9.10713 4.87285C9.10713 4.38714 8.74284 4.02285 8.25713 4.02285Z" fill="#7DC4E4"/>
</svg>
